<svg width="216" height="98" viewBox="0 0 216 98" fill="none" xmlns="http://www.w3.org/2000/svg">
<path d="M184.881 39.9399L189.641 64.3699L202.941 39.9399H215.891L181.241 97.5499H168.361L180.821 77.6699L171.581 39.9399H184.881Z" fill="white"/>
<path d="M156.864 65.5599C156.817 65.7933 156.794 66.0966 156.794 66.4699C156.794 67.3099 157.027 67.9166 157.494 68.2899C158.007 68.6633 158.824 68.8499 159.944 68.8499H164.214L162.394 78.9999H156.304C148.464 78.9999 144.544 75.7099 144.544 69.1299C144.544 68.1499 144.66 66.9133 144.894 65.4199L147.694 49.8799H142.934L144.684 39.9399H149.444L151.124 30.4199H163.094L161.414 39.9399H169.254L167.504 49.8799H159.664L156.864 65.5599Z" fill="white"/>
<path fill-rule="evenodd" clip-rule="evenodd" d="M131.949 78.9999L138.809 39.9399H126.839L119.979 78.9999H131.949Z" fill="white"/>
<path d="M133.629 35.8799C131.762 35.8799 130.269 35.3899 129.149 34.4099C128.076 33.3833 127.539 32.0999 127.539 30.5599C127.539 28.4599 128.356 26.6633 129.989 25.1699C131.622 23.6766 133.606 22.9299 135.939 22.9299C137.806 22.9299 139.276 23.4433 140.349 24.4699C141.422 25.4499 141.959 26.7333 141.959 28.3199C141.959 30.3733 141.142 32.1466 139.509 33.6399C137.876 35.1333 135.916 35.8799 133.629 35.8799Z" fill="#1ABC9C"/>
<path d="M107.608 47.01C109.428 44.6767 111.504 42.8567 113.838 41.55C116.218 40.1967 118.691 39.52 121.258 39.52L119.018 52.19H115.728C112.741 52.19 110.384 52.8434 108.658 54.15C106.931 55.41 105.788 57.65 105.228 60.87L102.008 79H90.0376L96.8976 39.94H108.868L107.608 47.01Z" fill="white"/>
<path d="M71.263 39.3799C76.303 39.3799 80.293 40.7565 83.233 43.5099C86.2197 46.2166 87.713 49.9266 87.713 54.6399C87.713 56.1799 87.5964 57.5566 87.363 58.7699C87.1764 59.8432 86.8964 60.9866 86.523 62.1999H59.433C59.3864 62.4799 59.363 62.9232 59.363 63.5299C59.363 65.5832 59.923 67.1466 61.043 68.2199C62.163 69.2932 63.6564 69.8299 65.523 69.8299C68.5097 69.8299 70.7964 68.5699 72.383 66.0499H85.123C83.443 70.0166 80.713 73.2599 76.933 75.7799C73.153 78.2999 68.9064 79.5599 64.193 79.5599C59.153 79.5599 55.1164 78.1599 52.083 75.3599C49.0964 72.5599 47.603 68.7566 47.603 63.9499C47.603 62.5032 47.743 61.0099 48.023 59.4699C48.723 55.4099 50.1697 51.8632 52.363 48.8299C54.5564 45.7966 57.2864 43.4632 60.553 41.8299C63.8197 40.1965 67.3897 39.3799 71.263 39.3799ZM75.603 56.1099C75.6964 55.4565 75.743 55.0132 75.743 54.7799C75.743 52.9132 75.1597 51.4899 73.993 50.5099C72.8264 49.4832 71.2864 48.9699 69.373 48.9699C67.3197 48.9699 65.4997 49.5999 63.913 50.8599C62.373 52.0732 61.253 53.8232 60.553 56.1099H75.603Z" fill="white"/>
<path d="M13.48 29.8601L19.15 66.9601L39 25L66 0L24.47 79.0001H9.48999L0.73999 29.8601H13.48Z" fill="white"/>
</svg>
