<svg width="91" height="91" viewBox="0 0 91 91" fill="none" xmlns="http://www.w3.org/2000/svg">
<rect width="91" height="91" rx="45.5" fill="#EADDFF"/>
<path fill-rule="evenodd" clip-rule="evenodd" d="M59.1503 36.4C59.1503 43.9387 53.039 50.05 45.5003 50.05C37.9616 50.05 31.8503 43.9387 31.8503 36.4C31.8503 28.8613 37.9616 22.75 45.5003 22.75C53.039 22.75 59.1503 28.8613 59.1503 36.4ZM54.6003 36.4C54.6003 41.4258 50.5261 45.5 45.5003 45.5C40.4745 45.5 36.4003 41.4258 36.4003 36.4C36.4003 31.3742 40.4745 27.3 45.5003 27.3C50.5261 27.3 54.6003 31.3742 54.6003 36.4Z" fill="#4F378A"/>
<path d="M45.5003 56.875C30.7711 56.875 18.2214 65.5846 13.4409 77.7869C14.6055 78.9433 15.8323 80.0371 17.1158 81.0629C20.6756 69.86 31.8428 61.425 45.5003 61.425C59.1578 61.425 70.3251 69.86 73.8848 81.063C75.1684 80.0372 76.3952 78.9433 77.5597 77.7869C72.7792 65.5846 60.2296 56.875 45.5003 56.875Z" fill="#4F378A"/>
</svg>
